<svg width="437" height="289" viewBox="0 0 437 289" fill="none" xmlns="http://www.w3.org/2000/svg">
<g clip-path="url(#clip0)">
<path d="M339.731 -50.4872C319.458 -39.7442 296.027 -29.8969 280.474 -15.3128C267.776 -3.40554 248.387 25.6918 281.549 30.8308C311.745 35.51 345.193 27.6492 374.465 36.4713C407.523 46.4343 400.768 69.277 382.192 84.5559C347.431 113.148 293.627 134.949 255.818 162.456" stroke="#222222" stroke-width="1.19853" stroke-linecap="round" stroke-linejoin="round"/>
<path d="M222.301 183.692C223.637 193.776 216.54 202.993 206.449 204.279L75.0168 221.03L58.1499 223.18C48.0597 224.466 38.7974 217.334 37.462 207.251L17.5995 57.2765C16.264 47.1928 23.3611 37.9758 33.4512 36.6898L181.751 17.7886C191.841 16.5026 201.103 23.6345 202.439 33.7182L222.301 183.692Z" fill="#3A6EED"/>
<path d="M77.0134 93.6216C87.9517 92.276 95.6128 82.3943 94.1252 71.5503C92.6375 60.7062 82.5644 53.0063 71.6262 54.352C60.688 55.6977 53.0268 65.5794 54.5144 76.4234C56.0021 87.2674 66.0752 94.9673 77.0134 93.6216Z" fill="white"/>
<path d="M64.4853 74.079L73.387 80.8864L83.0811 66.1239" stroke="#222222" stroke-width="1.19853" stroke-miterlimit="10" stroke-linecap="round" stroke-linejoin="round"/>
<path d="M83.8062 144.901C94.7444 143.555 102.406 133.673 100.918 122.829C99.4303 111.985 89.3571 104.285 78.4189 105.631C67.4807 106.977 59.8195 116.858 61.3072 127.702C62.7948 138.546 72.868 146.246 83.8062 144.901Z" fill="white"/>
<path d="M71.2766 125.353L80.179 132.165L89.8731 117.402" stroke="#222222" stroke-width="1.19853" stroke-miterlimit="10" stroke-linecap="round" stroke-linejoin="round"/>
<path d="M90.596 196.179C101.534 194.833 109.195 184.951 107.708 174.107C106.22 163.263 96.1469 155.563 85.2087 156.909C74.2705 158.255 66.6093 168.137 68.097 178.981C69.5846 189.825 79.6578 197.524 90.596 196.179Z" stroke="#222222" stroke-width="1.19853" stroke-miterlimit="10" stroke-linecap="round" stroke-linejoin="round"/>
<path d="M78.969 169.72L96.8294 183.368" stroke="#222222" stroke-width="1.19853" stroke-miterlimit="10" stroke-linecap="round" stroke-linejoin="round"/>
<path d="M94.6917 167.785L81.1067 185.302" stroke="#222222" stroke-width="1.19853" stroke-miterlimit="10" stroke-linecap="round" stroke-linejoin="round"/>
<path d="M116.011 61.748L172.75 54.5166" stroke="white" stroke-width="1.19853" stroke-linecap="round"/>
<path d="M122.627 113.737L179.366 106.505" stroke="white" stroke-width="1.19853" stroke-linecap="round"/>
<path d="M117.835 75.5195L158.195 70.3755" stroke="white" stroke-width="1.19853" stroke-linecap="round"/>
<path d="M124.449 127.509L164.81 122.364" stroke="#222222" stroke-width="1.19853" stroke-linecap="round"/>
<g filter="url(#filter0_bd)">
<path d="M266.113 106.077L130.133 123.408C120.042 124.694 112.945 133.911 114.281 143.995L129.507 258.958C130.842 269.042 140.104 276.174 150.194 274.888L286.175 257.556C296.265 256.27 303.362 247.053 302.027 236.97L286.801 122.006C285.466 111.923 276.203 104.791 266.113 106.077Z" fill="white" fill-opacity="0.7"/>
</g>
<path d="M240.118 175.627C202.309 203.134 170.191 230.047 147.819 241.583C122.25 254.766 101.875 252.769 93.885 241.583" stroke="#222222" stroke-width="1.19853" stroke-linecap="round" stroke-linejoin="round"/>
<path d="M372.847 192.6L560.113 432.27C560.113 432.27 560.113 309.62 560.113 253.689L419.885 142.505L372.847 192.6Z" fill="#3A6EED"/>
<path d="M400.516 119.788C400.304 119.585 400.086 119.385 399.836 119.218C393.68 115.049 377.626 123.67 363.993 138.484C350.35 153.296 344.292 168.688 350.447 172.858C356.603 177.027 372.647 168.403 386.29 153.592C399.367 139.382 405.475 124.651 400.516 119.788Z" fill="#222222"/>
<path d="M364.67 41.8233L219.711 203.429L208.222 193.126L196.933 182.999L341.899 21.3909L364.67 41.8233Z" fill="#3A6EED"/>
<path d="M335.587 163.279C324.406 172.073 295.468 171.059 286.755 170.034C262.799 167.22 237.542 160.257 230.298 154.941C222.567 149.263 237.118 140.08 242.339 139.631C249.15 139.046 262.248 137.449 278.474 137.953L331.131 79.2036C331.131 79.2036 367.671 95.2591 383.505 110.625C407.371 133.785 423.823 156.806 423.823 156.806C435.341 182.292 371.459 186.56 371.459 186.56C371.459 186.56 346.428 154.752 335.587 163.279Z" fill="#FFE1A6"/>
<path d="M222.748 95.9358C219.807 96.9168 215.779 97.515 210.931 100.062C207.307 101.967 205.64 103.206 203.887 108.84C200.691 119.125 210.739 152.804 212.565 156.61C214.671 161.002 219.355 158.593 221.481 156.151C236.431 138.983 224.093 102.566 222.748 95.9358Z" fill="#FFE1A6" stroke="#222222" stroke-width="1.19853" stroke-miterlimit="10" stroke-linecap="round" stroke-linejoin="round"/>
<path d="M233.87 74.9757C230.929 75.9566 226.901 76.5549 222.053 79.1021C218.429 81.0072 216.762 82.2461 215.01 87.8797C211.813 98.165 215.851 147.134 217.676 150.94C219.782 155.331 224.466 152.923 226.593 150.48C241.549 133.309 235.212 81.5988 233.87 74.9757Z" fill="#FFE1A6" stroke="#222222" stroke-width="1.19853" stroke-miterlimit="10" stroke-linecap="round" stroke-linejoin="round"/>
<path d="M400.516 119.788C405.481 124.648 399.367 139.382 386.283 153.594C372.64 168.406 356.596 177.03 350.44 172.86L380.779 208.748C380.779 208.748 427.389 186.718 430.423 145.606L400.516 119.788Z" fill="#517FF3"/>
<path d="M364.287 42.2899C367.182 39.0628 364.43 31.8721 358.139 26.2291C351.849 20.5861 344.403 18.6275 341.508 21.8546C338.613 25.0817 341.365 32.2723 347.656 37.9154C353.946 43.5584 361.392 45.5169 364.287 42.2899Z" fill="#222222"/>
<path d="M352.291 55.6188C349.394 58.8468 341.952 56.891 335.662 51.2494C329.372 45.6078 326.619 38.4242 329.516 35.1963" stroke="#222222" stroke-width="1.19853" stroke-miterlimit="10" stroke-linecap="round" stroke-linejoin="round"/>
<path d="M240.388 63.0671C230.461 68.7765 231.469 75.5748 231.899 81.2905C232.897 94.408 234.39 96.1538 233.948 109.809C233.663 118.584 215.745 135.507 225.217 143.783C228.949 147.043 236.733 141.768 242.8 135.755C246.087 132.496 250.481 126.705 253.986 119.503L303.1 64.7518C283.568 57.7196 253.099 55.7597 240.388 63.0671Z" fill="#FFE1A6"/>
<path d="M303.104 64.7591C283.572 57.7269 253.104 55.767 240.393 63.0744C230.465 68.7838 231.473 75.5821 231.903 81.2978C232.901 94.4154 234.395 96.1611 233.952 109.817C233.668 118.591 215.749 135.514 225.222 143.79C228.954 147.05 236.738 141.775 242.805 135.762C246.092 132.503 251.603 124.993 255.108 117.791" stroke="#222222" stroke-width="1.19853" stroke-miterlimit="10" stroke-linecap="round" stroke-linejoin="round"/>
<path d="M264.315 91.6794C272.53 95.6497 274.765 96.3151 274.765 96.3151L251.496 123.987C259.137 109.726 260.446 99.7591 260.326 94.2272C260.281 92.1585 262.452 90.7809 264.315 91.6794Z" fill="#222222"/>
<path d="M285.394 137.821C281.023 137.571 278.439 137.961 278.439 137.961L291.857 122.975C291.857 122.975 287.396 128.529 288.13 133.824C288.406 135.796 287.961 137.965 285.394 137.821Z" fill="#222222"/>
<path d="M232.238 147.977C233.445 147.496 236.435 146.517 239.735 147.584C244.245 149.035 247.489 153.706 247.794 159.324" stroke="#222222" stroke-width="1.19853" stroke-miterlimit="10" stroke-linecap="round" stroke-linejoin="round"/>
<path d="M219.71 203.428L187.022 217.085L196.932 182.999L219.71 203.428Z" fill="white"/>
<path d="M197.209 212.829L187.022 217.086L190.109 206.469L197.209 212.829Z" fill="#222222"/>
<path d="M220.066 203.155C222.531 200.407 219.43 193.605 213.139 187.962C206.849 182.319 199.751 179.972 197.286 182.719C194.821 185.467 197.922 192.269 204.212 197.912C210.503 203.555 217.601 205.902 220.066 203.155Z" fill="#3A6EED"/>
</g>
<defs>
<filter id="filter0_bd" x="92.0183" y="85.2991" width="232.271" height="213.313" filterUnits="userSpaceOnUse" color-interpolation-filters="sRGB">
<feFlood flood-opacity="0" result="BackgroundImageFix"/>
<feComposite in2="SourceAlpha" operator="in" result="effect1_backgroundBlur"/>
<feColorMatrix in="SourceAlpha" type="matrix" values="0 0 0 0 0 0 0 0 0 0 0 0 0 0 0 0 0 0 127 0" result="hardAlpha"/>
<feOffset dy="1.47341"/>
<feGaussianBlur stdDeviation="11.0506"/>
<feColorMatrix type="matrix" values="0 0 0 0 0.116667 0 0 0 0 0.116667 0 0 0 0 0.116667 0 0 0 0.1 0"/>
<feBlend mode="normal" in2="effect1_backgroundBlur" result="effect2_dropShadow"/>
<feBlend mode="normal" in="SourceGraphic" in2="effect2_dropShadow" result="shape"/>
</filter>
<clipPath id="clip0">
<rect width="437" height="288.201" fill="white"/>
</clipPath>
</defs>
</svg>
